<svg width="85" height="14" viewBox="0 0 85 14" fill="none" xmlns="http://www.w3.org/2000/svg">
<path d="M0.936 3.268V0.999999H7.752V1.432L2.256 9.412H6.9L7.356 7.732H7.98V10H0.72V9.556L6.18 1.564H2.004L1.56 3.268H0.936ZM14.4913 7.972V9.34C14.0353 9.86 13.2993 10.12 12.2833 10.12C11.2753 10.12 10.5273 9.856 10.0393 9.328C9.55131 8.792 9.30731 8.052 9.30731 7.108C9.30731 6.164 9.56331 5.424 10.0753 4.888C10.5953 4.344 11.2913 4.072 12.1633 4.072C12.6833 4.072 13.1153 4.168 13.4593 4.36C13.8113 4.552 14.0633 4.808 14.2153 5.128C14.4553 5.656 14.5753 6.212 14.5753 6.796H10.5073C10.5073 7.7 10.6113 8.388 10.8193 8.86C11.0593 9.396 11.5313 9.664 12.2353 9.664C12.4833 9.664 12.7193 9.632 12.9433 9.568C13.1753 9.496 13.3433 9.428 13.4473 9.364C13.5513 9.3 13.6033 9.26 13.6033 9.244L14.0473 7.972H14.4913ZM12.1393 4.54C11.4593 4.54 10.9953 4.852 10.7473 5.476C10.6273 5.756 10.5553 6.064 10.5313 6.4H13.5313C13.5313 5.16 13.0673 4.54 12.1393 4.54ZM16.1087 4.168H18.0527V5.86C18.3727 4.676 19.0847 4.084 20.1887 4.084C20.8367 4.084 21.3167 4.284 21.6287 4.684C21.9407 5.076 22.0967 5.62 22.0967 6.316V9.292L23.0207 9.556V10H20.1767V9.556L20.9807 9.316V6.46C20.9807 5.812 20.8927 5.348 20.7167 5.068C20.5487 4.788 20.2807 4.648 19.9127 4.648C19.3447 4.648 18.9047 4.92 18.5927 5.464C18.2887 6 18.1367 6.808 18.1367 7.888V9.316L18.9767 9.556V10H16.1087V9.556L16.9967 9.304V4.768L16.1087 4.6V4.168ZM24.1664 4.18H26.1104V9.316L26.9504 9.556V10H24.1064V9.556L24.9824 9.292V4.756L24.1664 4.612V4.18ZM24.5624 1.624C24.5624 1.408 24.6304 1.24 24.7664 1.12C24.9104 0.992 25.0984 0.927999 25.3304 0.927999C25.5704 0.927999 25.7624 0.992 25.9064 1.12C26.0504 1.24 26.1224 1.408 26.1224 1.624C26.1224 1.832 26.0544 2 25.9184 2.128C25.7824 2.256 25.5904 2.32 25.3424 2.32C25.1024 2.32 24.9104 2.26 24.7664 2.14C24.6304 2.012 24.5624 1.84 24.5624 1.624ZM29.8216 4.18H31.5736V4.684H29.8216V8.404C29.8216 8.876 29.8776 9.204 29.9896 9.388C30.1016 9.564 30.2816 9.652 30.5296 9.652C30.7776 9.652 31.1136 9.592 31.5376 9.472V9.916C30.9776 10.068 30.5216 10.144 30.1696 10.144C29.1936 10.144 28.7056 9.556 28.7056 8.38V4.684H27.6736V4.18H28.7056V2.944L29.8216 2.308V4.18ZM32.2512 0.999999H34.1952V5.644C34.4672 4.604 35.1512 4.084 36.2472 4.084C36.8632 4.084 37.3432 4.264 37.6872 4.624C38.0312 4.976 38.2032 5.5 38.2032 6.196V9.304L39.0792 9.556V10H36.2352V9.556L37.0632 9.304V6.22C37.0632 5.66 36.9752 5.26 36.7992 5.02C36.6232 4.78 36.3512 4.66 35.9832 4.66C35.4152 4.66 34.9752 4.92 34.6632 5.44C34.3512 5.96 34.1952 6.752 34.1952 7.816V9.316L35.0232 9.556V10H32.1792V9.556L33.0552 9.292V1.576L32.2512 1.432V0.999999ZM40.3378 0.999999H43.5298C44.3458 0.999999 45.0618 1.076 45.6778 1.228C46.2938 1.372 46.8418 1.616 47.3218 1.96C47.8098 2.296 48.1778 2.764 48.4258 3.364C48.6818 3.964 48.8098 4.692 48.8098 5.548C48.8098 6.404 48.6818 7.128 48.4258 7.72C48.1698 8.312 47.7898 8.772 47.2858 9.1C46.7818 9.42 46.2098 9.652 45.5698 9.796C44.9378 9.932 44.1858 10 43.3138 10H40.3378V9.556L41.5258 9.28V1.732L40.3378 1.444V0.999999ZM42.7858 9.496H43.3738C44.7578 9.496 45.7778 9.2 46.4338 8.608C47.0898 8.016 47.4178 7 47.4178 5.56C47.4178 4.112 47.1098 3.076 46.4938 2.452C45.8778 1.82 44.9058 1.504 43.5778 1.504H42.7858V9.496ZM55.3312 7.972V9.34C54.8752 9.86 54.1392 10.12 53.1232 10.12C52.1152 10.12 51.3672 9.856 50.8792 9.328C50.3912 8.792 50.1472 8.052 50.1472 7.108C50.1472 6.164 50.4032 5.424 50.9152 4.888C51.4352 4.344 52.1312 4.072 53.0032 4.072C53.5232 4.072 53.9552 4.168 54.2992 4.36C54.6512 4.552 54.9032 4.808 55.0552 5.128C55.2952 5.656 55.4152 6.212 55.4152 6.796H51.3472C51.3472 7.7 51.4512 8.388 51.6592 8.86C51.8992 9.396 52.3712 9.664 53.0752 9.664C53.3232 9.664 53.5592 9.632 53.7832 9.568C54.0152 9.496 54.1832 9.428 54.2872 9.364C54.3912 9.3 54.4432 9.26 54.4432 9.244L54.8872 7.972H55.3312ZM52.9792 4.54C52.2992 4.54 51.8352 4.852 51.5872 5.476C51.4672 5.756 51.3952 6.064 51.3712 6.4H54.3712C54.3712 5.16 53.9072 4.54 52.9792 4.54ZM61.2805 8.284C61.2805 8.82 61.0805 9.252 60.6805 9.58C60.2805 9.9 59.6645 10.06 58.8325 10.06C58.0085 10.06 57.3645 9.84 56.9005 9.4V8.008H57.3685L57.7165 9.184C57.9965 9.464 58.4445 9.604 59.0605 9.604C59.4925 9.604 59.8205 9.508 60.0445 9.316C60.2685 9.124 60.3805 8.892 60.3805 8.62C60.3805 8.348 60.2645 8.136 60.0325 7.984C59.8005 7.832 59.3405 7.648 58.6525 7.432C57.9725 7.208 57.4965 6.976 57.2245 6.736C56.9525 6.496 56.8165 6.14 56.8165 5.668C56.8165 5.188 57.0125 4.792 57.4045 4.48C57.7965 4.168 58.3725 4.012 59.1325 4.012C59.8925 4.012 60.5045 4.192 60.9685 4.552V5.932H60.5005L60.1285 4.78C59.8645 4.572 59.5125 4.468 59.0725 4.468C58.2005 4.468 57.7645 4.78 57.7645 5.404C57.7645 5.636 57.8885 5.84 58.1365 6.016C58.3925 6.184 58.8565 6.372 59.5285 6.58C60.2005 6.788 60.6605 7.024 60.9085 7.288C61.1565 7.544 61.2805 7.876 61.2805 8.284ZM62.3813 4.18H64.3253V9.316L65.1653 9.556V10H62.3213V9.556L63.1973 9.292V4.756L62.3813 4.612V4.18ZM62.7773 1.624C62.7773 1.408 62.8453 1.24 62.9813 1.12C63.1253 0.992 63.3133 0.927999 63.5452 0.927999C63.7853 0.927999 63.9773 0.992 64.1213 1.12C64.2653 1.24 64.3373 1.408 64.3373 1.624C64.3373 1.832 64.2693 2 64.1333 2.128C63.9973 2.256 63.8053 2.32 63.5573 2.32C63.3173 2.32 63.1253 2.26 62.9813 2.14C62.8453 2.012 62.7773 1.84 62.7773 1.624ZM67.3044 10.684C66.9204 11.068 66.7284 11.488 66.7284 11.944C66.7284 12.4 66.9084 12.776 67.2684 13.072C67.6364 13.376 68.1524 13.528 68.8164 13.528C69.4884 13.528 70.0404 13.38 70.4724 13.084C70.9124 12.796 71.1324 12.416 71.1324 11.944C71.1324 11.384 70.7484 11.072 69.9804 11.008L68.2764 10.876C67.8524 10.844 67.5284 10.78 67.3044 10.684ZM68.7924 4.528C67.9124 4.528 67.4724 5.124 67.4724 6.316C67.4724 6.932 67.5804 7.384 67.7964 7.672C68.0124 7.96 68.3484 8.104 68.8044 8.104C69.7084 8.104 70.1604 7.52 70.1604 6.352C70.1604 5.704 70.0524 5.24 69.8364 4.96C69.6204 4.672 69.2724 4.528 68.7924 4.528ZM71.9964 4.204V4.624L70.9164 5.044C71.1564 5.396 71.2764 5.824 71.2764 6.328C71.2764 7.008 71.0404 7.548 70.5684 7.948C70.0964 8.348 69.4964 8.548 68.7684 8.548C68.5364 8.548 68.2684 8.516 67.9644 8.452C67.5724 8.668 67.3764 8.9 67.3764 9.148C67.3764 9.388 67.4444 9.556 67.5804 9.652C67.7244 9.748 68.0484 9.82 68.5524 9.868L69.7404 9.964C70.4764 9.98 71.0044 10.124 71.3244 10.396C71.6444 10.668 71.8044 11.076 71.8044 11.62C71.8044 12.356 71.5164 12.928 70.9404 13.336C70.3644 13.744 69.6324 13.948 68.7444 13.948C67.8564 13.948 67.1684 13.784 66.6804 13.456C66.1924 13.128 65.9484 12.66 65.9484 12.052C65.9484 11.452 66.3124 10.956 67.0404 10.564C66.7204 10.292 66.5604 9.988 66.5604 9.652C66.5604 9.316 66.6364 9.06 66.7884 8.884C66.9404 8.708 67.2164 8.528 67.6164 8.344C66.7844 7.92 66.3684 7.244 66.3684 6.316C66.3684 5.628 66.5884 5.08 67.0284 4.672C67.4684 4.256 68.0604 4.048 68.8044 4.048C69.1644 4.048 69.5484 4.1 69.9564 4.204H71.9964ZM72.8743 4.168H74.8183V5.86C75.1383 4.676 75.8503 4.084 76.9543 4.084C77.6023 4.084 78.0823 4.284 78.3943 4.684C78.7063 5.076 78.8623 5.62 78.8623 6.316V9.292L79.7863 9.556V10H76.9423V9.556L77.7463 9.316V6.46C77.7463 5.812 77.6583 5.348 77.4823 5.068C77.3143 4.788 77.0463 4.648 76.6783 4.648C76.1103 4.648 75.6703 4.92 75.3583 5.464C75.0543 6 74.9023 6.808 74.9023 7.888V9.316L75.7423 9.556V10H72.8743V9.556L73.7623 9.304V4.768L72.8743 4.6V4.168Z" fill="white"/>
<circle cx="83" cy="2" r="2" fill="#F9AD4A"/>
</svg>
